<?xml version="1.0" encoding="UTF-8"?>
<svg version="1.1" xmlns="http://www.w3.org/2000/svg" width="1024" height="842">
<path d="M0 0 C337.92 0 675.84 0 1024 0 C1024 277.86 1024 555.72 1024 842 C686.08 842 348.16 842 0 842 C0 564.14 0 286.28 0 0 Z " fill="#070702" transform="translate(0,0)"/>
<path d="M0 0 C3.91620922 2.32206457 6.98000583 4.67374686 8.5390625 9.05859375 C9.46963123 15.86705864 8.57109858 21.42674981 4.5390625 27.05859375 C0.90230782 30.51794576 -1.76404802 31.86649305 -6.7734375 32.43359375 C-11.61915747 31.94080867 -13.03486116 30.40110725 -16.4609375 27.05859375 C-16.1309375 26.06859375 -15.8009375 25.07859375 -15.4609375 24.05859375 C-14.7596875 24.88359375 -14.0584375 25.70859375 -13.3359375 26.55859375 C-10.70478021 29.28681704 -10.70478021 29.28681704 -7.4609375 29.55859375 C-3.96994412 28.97676152 -2.18193326 28.33834696 0.5390625 26.05859375 C3.49123173 20.86684787 4.19591204 16.87640393 3.5390625 11.05859375 C1.4145798 7.61546661 0.39053609 6.34241828 -3.4609375 5.05859375 C-10.21578768 4.09535699 -14.65586164 5.11617522 -20.2578125 8.96484375 C-27.05344847 15.42310772 -31.14964049 23.65747201 -35.4609375 31.87109375 C-36.10833875 33.09302076 -36.75621494 34.31469624 -37.40454102 35.53613281 C-44.18103831 48.32900643 -50.8351976 61.18714006 -57.4609375 74.05859375 C-56.62127441 74.320354 -56.62127441 74.320354 -55.76464844 74.58740234 C-50.53476383 76.26647056 -45.61244575 78.20835378 -40.7109375 80.68359375 C-40.02555908 81.02914307 -39.34018066 81.37469238 -38.6340332 81.73071289 C-3.47799307 99.91374767 20.71338007 132.40382231 32.7890625 169.49609375 C45.75808266 211.0264333 41.1819523 258.15221898 21.2265625 296.68359375 C0.32287856 334.06376219 -32.54658764 358.15696602 -73.4609375 370.05859375 C-78.08428021 371.3221746 -82.73212209 372.27736267 -87.4609375 373.05859375 C-89.08322266 373.34476563 -89.08322266 373.34476563 -90.73828125 373.63671875 C-102.78151604 375.64153786 -114.76937927 376.20932513 -126.9621582 376.17211914 C-128.24177429 376.17226517 -129.52139038 376.17241119 -130.83978271 376.17256165 C-134.30379299 376.1728452 -137.7677677 376.16702074 -141.2317698 376.15998769 C-144.86855651 376.1536798 -148.50534429 376.15314453 -152.14213562 376.15196228 C-159.00886649 376.14887068 -165.87558119 376.14068694 -172.74230498 376.13061279 C-180.56833196 376.11938375 -188.39435977 376.11392419 -196.22039282 376.10891736 C-212.30058381 376.09850219 -228.38075858 376.08094536 -244.4609375 376.05859375 C-244.4609375 374.40859375 -244.4609375 372.75859375 -244.4609375 371.05859375 C-243.71070313 371.04441406 -242.96046875 371.03023437 -242.1875 371.015625 C-234.8494487 370.67367551 -228.39768437 369.64748302 -222.4609375 365.05859375 C-218.63443756 360.61500912 -216.38711916 356.13916235 -215.15576172 350.38549805 C-214.99091719 349.61977572 -214.82607265 348.8540534 -214.65623283 348.06512737 C-212.64662807 337.40295363 -213.09389983 326.56863167 -213.28073502 315.76828957 C-213.34532402 311.72970542 -213.37610724 307.69223179 -213.39425659 303.65324402 C-213.45046486 292.18178643 -213.53216524 280.71151919 -213.72460938 269.24145508 C-214.70806631 208.88618211 -214.70806631 208.88618211 -200.23062134 186.02351379 C-197.12179568 180.8150018 -194.90421206 175.21424339 -192.5859375 169.62109375 C-191.77878105 167.74621412 -190.96940984 165.87228369 -190.15625 164 C-189.59079099 162.6863506 -189.02553265 161.37261466 -188.4609375 160.05859375 C-188.1309375 160.05859375 -187.8009375 160.05859375 -187.4609375 160.05859375 C-187.4609375 229.35859375 -187.4609375 298.65859375 -187.4609375 370.05859375 C-99.94343151 371.52624366 -99.94343151 371.52624366 -29.4609375 330.05859375 C-13.14241486 312.76715106 -2.04095512 291.85627562 4.5390625 269.05859375 C5.07466797 267.25648438 5.07466797 267.25648438 5.62109375 265.41796875 C14.88325278 231.69954713 14.16915267 195.0829377 2.5390625 162.05859375 C2.10980469 160.8365625 1.68054688 159.61453125 1.23828125 158.35546875 C-10.5294721 127.19578381 -30.96678996 98.36187168 -61.73046875 83.8359375 C-62.30152344 83.57941406 -62.87257813 83.32289063 -63.4609375 83.05859375 C-63.71875 83.90776367 -63.9765625 84.75693359 -64.2421875 85.63183594 C-65.52480862 89.23818011 -67.1495025 92.52880859 -68.9609375 95.88671875 C-69.48216187 96.86653717 -69.48216187 96.86653717 -70.01391602 97.8661499 C-71.15869188 100.01591781 -72.30984931 102.16220018 -73.4609375 104.30859375 C-74.27262558 105.83046784 -75.08381481 107.35260809 -75.89453125 108.875 C-77.57879826 112.03684204 -79.26520393 115.19752912 -80.953125 118.35742188 C-84.43829774 124.88574872 -87.89731895 131.42787886 -91.35644531 137.97003174 C-93.20262351 141.46110003 -95.05057484 144.95122936 -96.8984375 148.44140625 C-97.26646484 149.1366037 -97.63449219 149.83180115 -98.01367188 150.54806519 C-100.42363379 155.10022272 -102.83469508 159.65179673 -105.24633789 164.20306396 C-106.91592288 167.35400268 -108.58517202 170.50511925 -110.25439453 173.65625 C-111.05207776 175.16187305 -111.84992649 176.66740843 -112.64794922 178.17285156 C-113.75269462 180.25694137 -114.85687529 182.34132946 -115.9609375 184.42578125 C-116.28715088 185.04081512 -116.61336426 185.655849 -116.94946289 186.28952026 C-118.48819105 189.19592151 -120.00729597 192.10860997 -121.4609375 195.05859375 C-122.1209375 195.05859375 -122.7809375 195.05859375 -123.4609375 195.05859375 C-123.95445637 188.92693488 -122.49316622 185.21803191 -119.61328125 179.86328125 C-119.21019241 179.08647003 -118.80710358 178.30965881 -118.39179993 177.50930786 C-117.07386806 174.97692597 -115.73631885 172.45548405 -114.3984375 169.93359375 C-113.4755094 168.16868899 -112.55397242 166.40305611 -111.63378906 164.63671875 C-109.78426615 161.09095838 -107.92751433 157.54915023 -106.06396484 154.01074219 C-103.17991427 148.53155828 -100.33609387 143.03217582 -97.49951172 137.52832031 C-95.71936539 134.07494335 -93.93270974 130.62500495 -92.14453125 127.17578125 C-89.46196897 121.99762536 -86.78916705 116.81454051 -84.12109375 111.62890625 C-83.38837387 110.205715 -82.65562667 108.78253782 -81.92285156 107.359375 C-80.86120954 105.29749346 -79.8000323 103.23538147 -78.74060059 101.17236328 C-72.61754465 89.24957618 -72.61754465 89.24957618 -70.00390625 84.80078125 C-68.29747779 82.29250423 -68.29747779 82.29250423 -68.4609375 80.05859375 C-86.58451582 72.60133724 -110.3861633 64.51350997 -130.17578125 69.78125 C-137.23651573 73.02892489 -139.90910632 78.44808853 -142.59667969 85.31591797 C-146.16878014 96.65178705 -143.6025027 110.44436512 -141.69360352 121.90063477 C-141.32555704 124.20094297 -140.9596037 126.50158683 -140.5954895 128.80252075 C-140.40696033 129.99296619 -140.21843117 131.18341164 -140.024189 132.40993118 C-139.08271186 138.50868532 -138.23958353 144.62035611 -137.40209961 150.73413086 C-137.22849191 152.00039086 -137.0548842 153.26665087 -136.87601566 154.57128239 C-136.42261226 157.88797497 -135.97067756 161.20486099 -135.51943278 164.52184749 C-135.03688452 168.06450305 -134.5514645 171.60676513 -134.06629944 175.14906311 C-132.94464276 183.34164697 -131.82601838 191.53464318 -130.70798492 199.72772217 C-129.28158539 210.18041508 -127.8544685 220.63300811 -126.42311484 231.08502394 C-125.94398648 234.58443516 -125.46566878 238.08395286 -124.98939323 241.58375359 C-122.52146067 259.75899976 -122.52146067 259.75899976 -119.84594727 277.90454102 C-119.7373812 278.63006385 -119.62881514 279.35558668 -119.51695919 280.10309505 C-117.62604589 292.08777072 -114.06138081 305.279844 -104 312.9296875 C-96.32339833 317.73620837 -89.39623213 319.38756372 -80.4609375 320.05859375 C-80.1309375 321.37859375 -79.8009375 322.69859375 -79.4609375 324.05859375 C-109.1609375 324.05859375 -138.8609375 324.05859375 -169.4609375 324.05859375 C-169.4609375 323.06859375 -169.4609375 322.07859375 -169.4609375 321.05859375 C-168.45933594 320.83945312 -167.45773437 320.6203125 -166.42578125 320.39453125 C-155.59905747 318.07836596 -155.59905747 318.07836596 -147.4609375 311.05859375 C-144.15622955 304.89174483 -143.95262084 299.50303128 -144.015625 292.578125 C-144.02278534 291.43970657 -144.02994568 290.30128815 -144.037323 289.12837219 C-144.28945733 275.59095804 -146.2505615 262.29918699 -148.25949097 248.93441772 C-148.82155972 245.16660768 -149.3623041 241.39574137 -149.90429688 237.625 C-150.61768645 232.66766346 -151.33233735 227.71053492 -152.05462646 222.75448608 C-154.16750798 208.23697428 -156.17934895 193.70634269 -158.171875 179.171875 C-158.48897562 176.86219125 -158.80612441 174.55251412 -159.12332153 172.24284363 C-160.38278493 163.06924777 -161.64147799 153.89554818 -162.89605713 144.72128296 C-163.63807125 139.29792491 -164.38457317 133.87520095 -165.13417435 128.45288658 C-165.41148426 126.44118784 -165.68721345 124.42927049 -165.96125412 122.41712379 C-166.33925481 119.64274087 -166.72270054 116.86916093 -167.10742188 114.09570312 C-167.21545198 113.2929983 -167.32348209 112.49029348 -167.43478584 111.66326427 C-168.13243952 106.68700652 -169.16678384 101.91507839 -170.4609375 97.05859375 C-170.89736572 98.06196777 -171.33379395 99.0653418 -171.78344727 100.09912109 C-179.47079805 117.76929681 -187.16749218 135.4349086 -194.9609375 153.05859375 C-200.25066202 165.02064246 -205.49389487 177.00217514 -210.7109375 188.99609375 C-216.74662771 202.87153033 -222.83550492 216.72254927 -228.9609375 230.55859375 C-234.74492609 243.62430131 -240.50387396 256.70024332 -246.2081604 269.80096436 C-247.26052465 272.21645491 -248.3149598 274.63103189 -249.36987305 277.04541016 C-252.44542561 284.0904874 -255.50533694 291.14079618 -258.49824524 298.22145081 C-259.77908204 301.24829515 -261.07052369 304.2705547 -262.36312866 307.29238892 C-262.96440205 308.70668859 -263.56023919 310.12331323 -264.15029907 311.54232788 C-264.95543839 313.47817231 -265.77824835 315.40554212 -266.60546875 317.33203125 C-267.06284424 318.41919434 -267.52021973 319.50635742 -267.99145508 320.62646484 C-269.4609375 323.05859375 -269.4609375 323.05859375 -271.6394043 323.91650391 C-272.24051025 323.96339355 -272.84161621 324.0102832 -273.4609375 324.05859375 C-279.36008697 312.38746211 -285.05124749 300.6271768 -290.6484375 288.80859375 C-291.49202317 287.03027269 -292.33561043 285.25195239 -293.17919922 283.47363281 C-298.37490298 272.51140859 -303.51913375 261.52684816 -308.6081543 250.51464844 C-313.00727803 241.00460458 -317.47867303 231.52967151 -321.9609375 222.05859375 C-326.96072626 211.49398106 -331.93317938 200.91866516 -336.8359375 190.30859375 C-342.53238098 177.98567521 -348.35701417 165.72552271 -354.19430542 153.46887207 C-360.01779443 141.23915356 -365.78579826 128.98653421 -371.453125 116.68359375 C-374.03220977 111.09208206 -376.67018114 105.54774102 -379.4609375 100.05859375 C-379.7909375 100.05859375 -380.1209375 100.05859375 -380.4609375 100.05859375 C-380.55797974 101.04811035 -380.55797974 101.04811035 -380.65698242 102.05761719 C-382.11388452 116.7091751 -383.83681666 131.29386836 -385.8984375 145.87109375 C-386.0601796 147.01579636 -386.0601796 147.01579636 -386.22518921 148.18362427 C-386.44374173 149.72982698 -386.6623238 151.27602552 -386.88093567 152.82221985 C-386.98854721 153.58342636 -387.09615875 154.34463287 -387.20703125 155.12890625 C-387.31419968 155.88644699 -387.4213681 156.64398773 -387.53178406 157.42448425 C-390.29816904 177.04010377 -392.68061956 196.7085564 -395.0859375 216.37109375 C-395.19035156 217.22319427 -395.29476562 218.0752948 -395.40234375 218.95321655 C-396.58563358 228.62420034 -397.73554906 238.29707544 -398.7718811 247.98506165 C-399.2712152 252.59156926 -399.89865198 257.16377258 -400.5859375 261.74609375 C-401.44114334 268.50629227 -401.6751262 275.18380762 -401.7109375 281.99609375 C-401.72012207 282.95539795 -401.72930664 283.91470215 -401.73876953 284.90307617 C-401.69522154 294.9199854 -400.22920925 306.290322 -392.7890625 313.73046875 C-386.27866445 318.62767082 -379.38306771 319.46365117 -371.4609375 320.05859375 C-371.4609375 321.37859375 -371.4609375 322.69859375 -371.4609375 324.05859375 C-397.8609375 324.05859375 -424.2609375 324.05859375 -451.4609375 324.05859375 C-451.4609375 322.73859375 -451.4609375 321.41859375 -451.4609375 320.05859375 C-450.69910156 319.960625 -449.93726563 319.86265625 -449.15234375 319.76171875 C-442.36074995 318.77816709 -436.44215665 317.4896807 -430.4609375 314.05859375 C-429.85765625 313.71828125 -429.254375 313.37796875 -428.6328125 313.02734375 C-418.64214426 306.00687418 -413.56828892 289.41703647 -411.4609375 278.05859375 C-410.41340009 271.49828324 -409.6185144 264.90888851 -408.85235596 258.31085205 C-408.4491378 254.96055117 -408.008937 251.6170231 -407.55883789 248.27270508 C-406.41317806 239.72743881 -405.29652703 231.17848817 -404.18359375 222.62890625 C-404.07884672 221.82435879 -403.97409969 221.01981133 -403.86617851 220.19088364 C-403.31126704 215.92807809 -402.75670563 211.66522715 -402.20239258 207.40234375 C-401.75223461 203.94099067 -401.30136834 200.47973103 -400.84985352 197.01855469 C-397.51069051 171.48509398 -397.51069051 171.48509398 -394.40711975 145.92214966 C-393.66989909 139.61876143 -392.81523759 133.33828412 -391.8984375 127.05859375 C-386.53085672 101.12069525 -386.53085672 101.12069525 -393.4609375 77.05859375 C-399.23737861 70.11186067 -407.88780139 67.315722 -416.6484375 66.30859375 C-417.9065625 66.22609375 -419.1646875 66.14359375 -420.4609375 66.05859375 C-420.4609375 64.73859375 -420.4609375 63.41859375 -420.4609375 62.05859375 C-403.9609375 62.05859375 -387.4609375 62.05859375 -370.4609375 62.05859375 C-365.32630029 72.32786816 -360.20989902 82.59865279 -355.2109375 92.93359375 C-354.8894574 93.59767242 -354.56797729 94.2617511 -354.23675537 94.94595337 C-349.43470933 104.873903 -344.74675096 114.84850115 -340.15234375 124.87451172 C-335.9043701 134.13402948 -331.56742285 143.34979963 -327.2109375 152.55859375 C-326.85101715 153.31959381 -326.4910968 154.08059387 -326.12026978 154.86465454 C-324.65728717 157.95787259 -323.19416745 161.05102569 -321.73072815 164.14402771 C-317.90243704 172.23622196 -314.08563445 180.33380684 -310.2734375 188.43359375 C-309.94168518 189.13834839 -309.60993286 189.84310303 -309.26812744 190.56921387 C-304.96980753 199.70206366 -300.69162027 208.8440544 -296.43078613 217.9944458 C-291.05881226 229.52971378 -285.65049608 241.04745912 -280.20965576 252.55041504 C-279.43265881 254.19332281 -278.6561511 255.83646208 -277.88018799 257.4798584 C-273.19381307 267.40210716 -268.41801922 277.26838195 -263.4609375 287.05859375 C-263.18531982 286.43218994 -262.90970215 285.80578613 -262.62573242 285.16040039 C-261.787519 283.25536989 -260.94930256 281.35034073 -260.11108398 279.4453125 C-259.11708441 277.18620747 -258.12310735 274.92709253 -257.12915039 272.66796875 C-254.72462661 267.20290232 -252.31991643 261.73791852 -249.9140625 256.2734375 C-249.07550106 254.36849829 -248.2369598 252.46355019 -247.3984375 250.55859375 C-246.95709473 249.55610596 -246.51575195 248.55361816 -246.06103516 247.52075195 C-243.19125934 240.99938618 -240.32801567 234.47519781 -237.46875 227.94921875 C-227.05869548 204.19465278 -216.55883772 180.48116168 -206.01074219 156.78759766 C-202.16157261 148.14053511 -198.31864828 139.49069679 -194.47518921 130.84109497 C-193.22425949 128.02607281 -191.97313047 125.21113932 -190.72192383 122.39624023 C-187.09871246 114.2448793 -183.4759677 106.09331273 -179.85580444 97.94059753 C-178.34951987 94.54844749 -176.84292151 91.15643686 -175.33630371 87.76443481 C-174.63357836 86.18205181 -173.93102016 84.59959456 -173.2286377 83.01705933 C-172.27132373 80.86014931 -171.31345816 78.70348508 -170.35546875 76.546875 C-170.07421646 75.91276703 -169.79296417 75.27865906 -169.50318909 74.62533569 C-168.52210031 72.41781372 -167.54144086 70.21960047 -166.4609375 68.05859375 C-173.3909375 68.05859375 -180.3209375 68.05859375 -187.4609375 68.05859375 C-187.1309375 71.44109375 -186.8009375 74.82359375 -186.4609375 78.30859375 C-185.78033822 95.39466577 -193.9361544 109.68436575 -201.30078125 124.60107422 C-204.91808625 131.98020275 -208.17016635 139.52979211 -211.4609375 147.05859375 C-211.7909375 147.05859375 -212.1209375 147.05859375 -212.4609375 147.05859375 C-212.46902435 146.43156052 -212.47711121 145.80452728 -212.48544312 145.15849304 C-212.5720079 138.58748297 -212.67152929 132.01675672 -212.77832031 125.44604492 C-212.81642433 122.9991536 -212.85130837 120.5522098 -212.8828125 118.10522461 C-212.92886878 114.57256409 -212.98679412 111.04025909 -213.046875 107.5078125 C-213.06420181 105.88681892 -213.06420181 105.88681892 -213.08187866 104.233078 C-213.27548084 94.09732211 -213.63299412 82.34086605 -220.9140625 74.4921875 C-226.74528176 69.3236068 -233.0070215 69.55465276 -240.5 69.71484375 C-249.87997773 70.52888521 -258.14442517 75.33441806 -265.4609375 81.05859375 C-266.13769531 81.58582031 -266.81445312 82.11304688 -267.51171875 82.65625 C-275.38803992 89.61494152 -281.8034595 101.44681562 -282.61010742 112.01245117 C-283.38873247 126.00781574 -281.84580523 137.93622903 -272.48828125 149.0546875 C-267.54135861 153.94442028 -261.98464234 157.65573449 -255.4609375 160.05859375 C-255.4609375 161.37859375 -255.4609375 162.69859375 -255.4609375 164.05859375 C-266.89393204 161.05977551 -275.17129147 154.70119795 -281.8046875 144.94140625 C-288.93975052 132.52235789 -290.32009054 118.26799985 -287.77734375 104.3046875 C-283.26543556 88.74702898 -275.08437856 77.66580617 -260.9140625 69.74121094 C-249.1753372 63.54928633 -237.44079631 61.91236919 -224.36645508 61.8815918 C-223.15073822 61.8750206 -221.93502136 61.8684494 -220.6824646 61.86167908 C-216.65679674 61.84196848 -212.63116884 61.83026593 -208.60546875 61.8203125 C-207.20749074 61.81625871 -205.80951291 61.81214162 -204.41153526 61.80796242 C-197.82326779 61.78890646 -191.23501137 61.77469053 -184.64672166 61.76635045 C-177.11477973 61.75665283 -169.58313756 61.73053426 -162.05130082 61.68984956 C-156.18838391 61.65930253 -150.32555077 61.6448448 -144.46255606 61.64156944 C-140.98241215 61.63925726 -137.50258784 61.63081966 -134.02253151 61.60510826 C-112.10611659 61.46580579 -89.94546679 62.35747291 -68.96484375 69.32421875 C-66.25611398 70.24621829 -66.25611398 70.24621829 -62.4609375 70.05859375 C-62.00879883 69.17413574 -61.55666016 68.28967773 -61.09082031 67.37841797 C-56.26399121 57.94337841 -51.40839646 48.52350088 -46.52758789 39.11627197 C-45.55728344 37.24445497 -44.58979382 35.37121449 -43.62304688 33.49755859 C-21.91908022 -8.38491799 -21.91908022 -8.38491799 0 0 Z " fill="#C0A351" transform="translate(718.4609375,232.94140625)"/>
<path d="M0 0 C10.04777039 3.51853332 16.66485874 10.98202806 21.66015625 20.10546875 C26.24379499 30.00773204 26.72730604 41.33392964 23.02734375 51.68359375 C19.33933603 59.99913967 14.00190206 66.63758015 8.07421875 73.43359375 C5.11488363 77.09514398 4.81394015 80.11644099 4.4375 84.6875 C4.35371094 85.68136719 4.26992188 86.67523438 4.18359375 87.69921875 C4.12300781 88.45847656 4.06242188 89.21773438 4 90 C3.01 89.835 2.02 89.67 1 89.5 C-0.33187533 89.32205714 -1.66539113 89.15612406 -3 89 C-3.68320312 88.92007813 -4.36640625 88.84015625 -5.0703125 88.7578125 C-8.80669387 88.51629735 -10.59511403 88.66385635 -13.5078125 91.08203125 C-16.17207944 94.2014786 -18.00979712 97.38310243 -19.75 101.0625 C-20.20439453 101.97999023 -20.20439453 101.97999023 -20.66796875 102.91601562 C-23.49687753 108.73099479 -24.17298882 112.96214321 -24.25 119.4375 C-24.27578125 120.73558594 -24.3015625 122.03367187 -24.328125 123.37109375 C-23.98349522 127.18253497 -23.30292243 128.9935595 -21 132 C-18.09753802 134.08381886 -15.51360995 135.34933149 -12 136 C-12.53996163 139.84639334 -13.51023922 141.94051542 -15.9375 144.9375 C-20.04880237 150.83461868 -20.30127355 157.00488465 -21 164 C-22.69030493 176.87768394 -26.96742228 187.74515295 -35 198 C-35.66 197.67 -36.32 197.34 -37 197 C-36.278125 196.154375 -35.55625 195.30875 -34.8125 194.4375 C-27.80779647 184.40803813 -26.38505272 172.7441 -25.7199707 160.85327148 C-25.2508882 153.2211536 -23.51271642 146.79530902 -20 140 C-20.9075 139.443125 -21.815 138.88625 -22.75 138.3125 C-26.83777047 135.40389409 -29.40501434 132.78495698 -31 128 C-31.97615767 113.43764793 -30.2444624 99.90412212 -21 88 C-17.72731971 84.41084074 -14.94595651 82.2364967 -10.04296875 81.640625 C-7.3320421 81.62670497 -4.69652118 81.73233062 -2 82 C-1.95875 81.030625 -1.9175 80.06125 -1.875 79.0625 C-0.77851818 71.68347371 4.72983472 66.20424549 9.625 60.9375 C18.3801247 51.46015121 19.63931292 42.29053371 19.41015625 29.859375 C18.90741561 20.5541683 13.78016567 12.2470814 7 6 C4.72012599 4.23597627 2.38564816 2.62224075 0 1 C0 0.67 0 0.34 0 0 Z " fill="#B89E55" transform="translate(658,341)"/>
<path d="M0 0 C1.08933838 -0.00426498 2.17867676 -0.00852997 3.30102539 -0.01292419 C5.07096611 -0.01224442 5.07096611 -0.01224442 6.87666321 -0.0115509 C8.13093109 -0.01490952 9.38519897 -0.01826813 10.67747498 -0.02172852 C14.10491633 -0.02958358 17.5322971 -0.03290494 20.95974326 -0.0335443 C23.10158086 -0.03425633 25.24341215 -0.03639343 27.38524818 -0.03904152 C34.85813932 -0.04827928 42.33101265 -0.05237794 49.8039093 -0.05158997 C56.77041564 -0.05098799 63.73684485 -0.06156716 70.70333165 -0.07733363 C76.68816705 -0.09039608 82.67297717 -0.09577448 88.65782672 -0.09513456 C92.23099505 -0.0948794 95.80409464 -0.09774098 99.37724876 -0.10831261 C103.35625121 -0.11976542 107.33514693 -0.11525478 111.31416321 -0.10920715 C112.50019638 -0.11482666 113.68622955 -0.12044617 114.90820312 -0.12623596 C115.98908203 -0.12204147 117.06996094 -0.11784698 118.18359375 -0.11352539 C119.12432582 -0.11407016 120.06505789 -0.11461493 121.03429699 -0.1151762 C123.40132141 0.13371277 123.40132141 0.13371277 126.40132141 2.13371277 C125.38559602 2.13867799 125.38559602 2.13867799 124.34935093 2.14374352 C107.84765533 2.22508073 91.34605846 2.31720804 74.844491 2.42123985 C66.86434901 2.47129126 58.88421691 2.51773484 50.90400696 2.55558777 C43.9457832 2.58860232 36.98763789 2.62848534 30.0295009 2.67650282 C26.34765419 2.70167407 22.6658589 2.72348262 18.98394966 2.73705673 C14.86653051 2.75236546 10.74935874 2.78301309 6.6320343 2.81486511 C5.42074356 2.8170253 4.20945282 2.81918549 2.9614563 2.82141113 C-3.5348849 2.88550721 -9.31581518 3.45728375 -15.59867859 5.13371277 C-13.61867859 5.46371277 -11.63867859 5.79371277 -9.59867859 6.13371277 C-12.75206146 7.7815613 -15.97533701 9.08534352 -19.28617859 10.38371277 C-24.91348711 12.72899445 -29.79692466 15.37699347 -34.59867859 19.13371277 C-35.2754364 19.66093933 -35.95219421 20.18816589 -36.64945984 20.73136902 C-44.52578101 27.69006053 -50.94120059 39.52193464 -51.74784851 50.08757019 C-52.52647356 64.08293476 -50.98354632 76.01134805 -41.62602234 87.12980652 C-36.6790997 92.0195393 -31.12238343 95.73085351 -24.59867859 98.13371277 C-24.59867859 99.45371277 -24.59867859 100.77371277 -24.59867859 102.13371277 C-36.03167313 99.13489453 -44.30903256 92.77631697 -50.94242859 83.01652527 C-58.07749161 70.5974769 -59.45783162 56.34311886 -56.91508484 42.37980652 C-52.40317665 26.822148 -44.22211964 15.74092518 -30.05180359 7.81632996 C-20.75703151 2.913538 -10.53052915 0.01873683 0 0 Z " fill="#B39B57" transform="translate(487.5986785888672,294.8662872314453)"/>
<path d="M0 0 C3.91620922 2.32206457 6.98000583 4.67374686 8.5390625 9.05859375 C9.46963123 15.86705864 8.57109858 21.42674981 4.5390625 27.05859375 C0.90230782 30.51794576 -1.76404802 31.86649305 -6.7734375 32.43359375 C-11.61915747 31.94080867 -13.03486116 30.40110725 -16.4609375 27.05859375 C-15.9659375 25.57359375 -15.9659375 25.57359375 -15.4609375 24.05859375 C-14.7596875 24.88359375 -14.0584375 25.70859375 -13.3359375 26.55859375 C-10.70478021 29.28681704 -10.70478021 29.28681704 -7.4609375 29.55859375 C-3.96994412 28.97676152 -2.18193326 28.33834696 0.5390625 26.05859375 C3.49123173 20.86684787 4.19591204 16.87640393 3.5390625 11.05859375 C1.4145798 7.61546661 0.39053609 6.34241828 -3.4609375 5.05859375 C-10.21578768 4.09535699 -14.65586164 5.11617522 -20.2578125 8.96484375 C-27.15296541 15.5176841 -31.2801123 23.91310493 -35.6484375 32.24609375 C-36.3035576 33.48369516 -36.95924442 34.72099673 -37.61547852 35.95800781 C-39.25886851 39.06029551 -40.89386065 42.16690672 -42.52514648 45.27557373 C-43.42381803 46.98786774 -44.32417751 48.69927555 -45.22460938 50.41064453 C-48.31603728 56.28672436 -51.39657717 62.16835225 -54.4609375 68.05859375 C-55.7809375 66.73859375 -57.1009375 65.41859375 -58.4609375 64.05859375 C-56.9380006 58.89526758 -54.68370991 54.39978851 -52.1484375 49.68359375 C-51.71474854 48.872854 -51.28105957 48.06211426 -50.83422852 47.22680664 C-49.88652008 45.45682912 -48.93714777 43.68774174 -47.98632812 41.91943359 C-46.37669571 38.90059995 -44.80046734 35.86572382 -43.2265625 32.828125 C-42.11773273 30.71716143 -41.00836513 28.60648028 -39.8984375 26.49609375 C-39.3933667 25.51012207 -38.8882959 24.52415039 -38.36791992 23.50830078 C-30.97960021 9.60073728 -17.73107574 -6.78284009 0 0 Z " fill="#B9A059" transform="translate(718.4609375,232.94140625)"/>
<path d="M0 0 C0.66 0 1.32 0 2 0 C3.88212735 3.87496808 4.15963666 5.87280943 3 10 C1.92047956 12.29667396 0.8068987 14.50494006 -0.40234375 16.73046875 C-0.75124161 17.38509598 -1.10013947 18.03972321 -1.45960999 18.71418762 C-2.61301178 20.87516898 -3.77530697 23.03123587 -4.9375 25.1875 C-5.75393829 26.71382752 -6.56968199 28.24052676 -7.38476562 29.76757812 C-9.07917702 32.94073953 -10.77657105 36.11227781 -12.47607422 39.28271484 C-15.97380851 45.81312229 -19.43513982 52.36271718 -22.89651489 58.91244507 C-24.74186101 62.40344043 -26.58976591 65.89308064 -28.4375 69.3828125 C-28.80553238 70.07801498 -29.17356476 70.77321747 -29.55274963 71.48948669 C-31.96269634 76.0416445 -34.3737608 80.59320905 -36.78540039 85.14447021 C-38.45498538 88.29540893 -40.12423452 91.4465255 -41.79345703 94.59765625 C-42.59114026 96.1032793 -43.38898899 97.60881468 -44.18701172 99.11425781 C-45.29175712 101.19834762 -46.39593779 103.28273571 -47.5 105.3671875 C-47.82621338 105.98222137 -48.15242676 106.59725525 -48.48852539 107.23092651 C-50.02725355 110.13732776 -51.54635847 113.05001622 -53 116 C-53.66 116 -54.32 116 -55 116 C-55.49351887 109.86834113 -54.03222872 106.15943816 -51.15234375 100.8046875 C-50.74925491 100.02787628 -50.34616608 99.25106506 -49.93086243 98.45071411 C-48.61293056 95.91833222 -47.27538135 93.3968903 -45.9375 90.875 C-45.0145719 89.11009524 -44.09303492 87.34446236 -43.17285156 85.578125 C-41.32332865 82.03236463 -39.46657683 78.49055648 -37.60302734 74.95214844 C-34.71897677 69.47296453 -31.87515637 63.97358207 -29.03857422 58.46972656 C-27.25842789 55.0163496 -25.47177224 51.5664112 -23.68359375 48.1171875 C-21.00103147 42.93903161 -18.32822955 37.75594676 -15.66015625 32.5703125 C-14.92743637 31.14712125 -14.19468917 29.72394407 -13.46191406 28.30078125 C-12.40027204 26.23889971 -11.3390948 24.17678772 -10.27966309 22.11376953 C-4.15063385 10.17935125 -4.15063385 10.17935125 -1.54296875 5.8046875 C0.24100622 3.09543404 0.24100622 3.09543404 0 0 Z " fill="#B89F58" transform="translate(650,312)"/>
<path d="M0 0 C3.92424803 2.31094606 6.98777799 4.66972717 8.546875 9.0546875 C9.47744373 15.86315239 8.57891108 21.42284356 4.546875 27.0546875 C0.91012032 30.51403951 -1.75623552 31.8625868 -6.765625 32.4296875 C-11.61134497 31.93690242 -13.02704866 30.397201 -16.453125 27.0546875 C-16.123125 26.0646875 -15.793125 25.0746875 -15.453125 24.0546875 C-14.751875 24.8796875 -14.050625 25.7046875 -13.328125 26.5546875 C-10.69696771 29.28291079 -10.69696771 29.28291079 -7.453125 29.5546875 C-3.96213162 28.97285527 -2.17412076 28.33444071 0.546875 26.0546875 C3.49904423 20.86294162 4.20372454 16.87249768 3.546875 11.0546875 C2.34184684 8.00608637 2.34184684 8.00608637 -0.453125 6.0546875 C-3.06699754 5.29836826 -5.61684029 4.80816989 -8.30859375 4.4140625 C-10.453125 4.0546875 -10.453125 4.0546875 -11.453125 3.0546875 C-13.46033423 3.34143168 -15.4617194 3.67335451 -17.453125 4.0546875 C-18.113125 3.0646875 -18.773125 2.0746875 -19.453125 1.0546875 C-13.33590244 -1.72993484 -6.37544127 -2.45677833 0 0 Z " fill="#B59D5E" transform="translate(718.453125,232.9453125)"/>
<path d="M0 0 C0 0.99 0 1.98 0 3 C-0.99 3.33 -1.98 3.66 -3 4 C-2.1975737 4.01030746 -1.3951474 4.02061493 -0.56840515 4.03123474 C7.0364796 4.12968257 14.64129267 4.23225888 22.24606037 4.33933926 C26.15465576 4.39423293 30.06325893 4.44759452 33.97192383 4.49731445 C37.75211989 4.54545893 41.53223746 4.59781107 45.31233788 4.65294075 C46.74621788 4.67314014 48.1801192 4.69188643 49.61403847 4.70907402 C57.78318313 4.80804844 65.87457327 5.09342898 74 6 C74 6.33 74 6.66 74 7 C44.63 7 15.26 7 -15 7 C-15 6.01 -15 5.02 -15 4 C-10.05 2.68 -5.1 1.36 0 0 Z " fill="#BDA358" transform="translate(564,550)"/>
<path d="M0 0 C10.04777039 3.51853332 16.66485874 10.98202806 21.66015625 20.10546875 C24.31236017 25.8351571 25.28375264 30.57374138 25.125 36.875 C25.11597656 37.56335938 25.10695313 38.25171875 25.09765625 38.9609375 C25.07432513 40.64077838 25.03846326 42.32043746 25 44 C23.515 43.505 23.515 43.505 22 43 C21.67 43.99 21.34 44.98 21 46 C20.34 46 19.68 46 19 46 C19.0314209 45.42668945 19.0628418 44.85337891 19.09521484 44.26269531 C19.64954168 32.60078146 20.09372956 22.88576958 13 13 C12.50886719 12.30777344 12.01773438 11.61554688 11.51171875 10.90234375 C8.23517522 6.74263485 4.35598401 3.96206913 0 1 C0 0.67 0 0.34 0 0 Z " fill="#B89F5D" transform="translate(658,341)"/>
<path d="M0 0 C16.5 0 33 0 50 0 C52.475 4.95 52.475 4.95 55 10 C54.34 10 53.68 10 53 10 C50 4.25 50 4.25 50 2 C37.13 2.33 24.26 2.66 11 3 C15.95 4.98 15.95 4.98 21 7 C20.67 7.66 20.34 8.32 20 9 C19.31035156 8.72285156 18.62070312 8.44570313 17.91015625 8.16015625 C11.83798129 5.81957852 6.49426648 4.42585354 0 4 C0 2.68 0 1.36 0 0 Z " fill="#AC975B" transform="translate(298,295)"/>
<path d="M0 0 C0.33 0 0.66 0 1 0 C1.12375 0.969375 1.2475 1.93875 1.375 2.9375 C1.58125 3.948125 1.7875 4.95875 2 6 C2.66 6.33 3.32 6.66 4 7 C3.73274625 20.26550441 -0.18869516 33.76886405 -9 44 C-9.99 44 -10.98 44 -12 44 C-10.9171875 42.7315625 -10.9171875 42.7315625 -9.8125 41.4375 C-1.32216961 29.28089057 -0.83596297 14.28576535 0 0 Z " fill="#B59E5F" transform="translate(633,494)"/>
<path d="M0 0 C1.91297122 1.2037056 3.69770163 2.44291421 5.44140625 3.87890625 C5.11140625 4.86890625 4.78140625 5.85890625 4.44140625 6.87890625 C3.45140625 7.20890625 2.46140625 7.53890625 1.44140625 7.87890625 C0.69890625 7.42515625 -0.04359375 6.97140625 -0.80859375 6.50390625 C-4.0762679 4.57300789 -6.82190554 4.31006258 -10.55859375 3.87890625 C-10.88859375 3.54890625 -11.21859375 3.21890625 -11.55859375 2.87890625 C-13.56580298 3.16565043 -15.56718815 3.49757326 -17.55859375 3.87890625 C-18.21859375 2.88890625 -18.87859375 1.89890625 -19.55859375 0.87890625 C-13.43327065 -1.90940353 -6.2967381 -2.75902875 0 0 Z " fill="#B19752" transform="translate(718.55859375,233.12109375)"/>
<path d="M0 0 C0.5835236 0.16173675 1.1670472 0.32347349 1.76825333 0.49011135 C5.23158514 1.28138108 8.72103711 1.17924675 12.25683594 1.20532227 C13.50129234 1.22017166 13.50129234 1.22017166 14.77088928 1.23532104 C17.50868899 1.26686743 20.24650603 1.29166634 22.984375 1.31640625 C24.88438361 1.3369817 26.78438771 1.35797833 28.68438721 1.37937927 C33.68203063 1.43453888 38.67971494 1.48397511 43.6774292 1.53222656 C48.77847935 1.58248621 53.87947021 1.63814897 58.98046875 1.69335938 C68.9869285 1.8008662 78.99343976 1.90232777 89 2 C89 2.33 89 2.66 89 3 C59.63 3 30.26 3 0 3 C0 2.01 0 1.02 0 0 Z " fill="#B9A56B" transform="translate(549,554)"/>
<path d="M0 0 C0.99 0 1.98 0 3 0 C4.56480359 3.12960718 4.50188195 6.49713142 4.75 9.9375 C4.81832031 10.66646484 4.88664062 11.39542969 4.95703125 12.14648438 C5.34246871 17.53766725 5.34246871 17.53766725 3.515625 20.00390625 C3.01546875 20.33261719 2.5153125 20.66132813 2 21 C0.13867327 16.29538677 -0.2509496 12.1242304 -0.125 7.125 C-0.11146484 6.09246094 -0.11146484 6.09246094 -0.09765625 5.0390625 C-0.07432513 3.35922162 -0.03846326 1.67956254 0 0 Z " fill="#BFA254" transform="translate(430,345)"/>
<path d="M0 0 C1.12494709 2.79251573 1.05342091 3.85982032 -0.0390625 6.7265625 C-0.56242188 7.68304688 -1.08578125 8.63953125 -1.625 9.625 C-2.13289062 10.58664062 -2.64078125 11.54828125 -3.1640625 12.5390625 C-5.24153002 15.32375301 -6.70955173 16.0454331 -10 17 C-8.20809188 10.64687123 -5.61010438 3.74006959 0 0 Z " fill="#BCA35C" transform="translate(612,393)"/>
<path d="M0 0 C0.66 0.33 1.32 0.66 2 1 C2 5.95 2 10.9 2 16 C1.01 15.34 0.02 14.68 -1 14 C-0.67 9.38 -0.34 4.76 0 0 Z M-3 1 C-2.67 1 -2.34 1 -2 1 C-1.80506805 3.27020744 -1.61929582 5.54120289 -1.4375 7.8125 C-1.33308594 9.07707031 -1.22867188 10.34164063 -1.12109375 11.64453125 C-1 15 -1 15 -2 18 C-2.66 18 -3.32 18 -4 18 C-3.67 12.39 -3.34 6.78 -3 1 Z " fill="#9F894D" transform="translate(681,369)"/>
<path d="M0 0 C0.78375 0.33 1.5675 0.66 2.375 1 C4.84332497 2.11866511 4.84332497 2.11866511 7 2 C10.15622921 2.65301294 13.02908274 3.76211781 16 5 C16 6.32 16 7.64 16 9 C9.75106054 7.25709852 5.0610453 5.09190897 0 1 C0 0.67 0 0.34 0 0 Z " fill="#AF9958" transform="translate(447,388)"/>
<path d="M0 0 C4.24319537 1.43758532 7.23547015 3.53990863 10.6875 6.375 C11.64011719 7.14585937 12.59273437 7.91671875 13.57421875 8.7109375 C15.77400564 10.78674285 16.91503119 12.22095709 18 15 C16.68 15 15.36 15 14 15 C12.578125 13.4609375 12.578125 13.4609375 11.25 11.375 C8.49568355 7.39889702 5.50599283 4.85524226 1.5390625 2.12890625 C1.03117188 1.75636719 0.52328125 1.38382812 0 1 C0 0.67 0 0.34 0 0 Z " fill="#A4966B" transform="translate(658,341)"/>
<path d="M0 0 C-0.33 6.27 -0.66 12.54 -1 19 C-1.33 19 -1.66 19 -2 19 C-2.03738281 18.30132812 -2.07476562 17.60265625 -2.11328125 16.8828125 C-2.17902344 15.97273438 -2.24476563 15.06265625 -2.3125 14.125 C-2.37050781 13.22007812 -2.42851562 12.31515625 -2.48828125 11.3828125 C-2.7882039 8.63778399 -2.7882039 8.63778399 -6 7 C-5.60799596 4.15797072 -5.2043974 3.17884772 -3 1.25 C-1 0 -1 0 0 0 Z " fill="#A99253" transform="translate(436,338)"/>
<path d="M0 0 C0.33 0 0.66 0 1 0 C1.12375 0.969375 1.2475 1.93875 1.375 2.9375 C1.58125 3.948125 1.7875 4.95875 2 6 C2.66 6.33 3.32 6.66 4 7 C3.67 10.96 3.34 14.92 3 19 C-0.01399879 14.47900181 -0.12108347 11.13967935 -0.0625 5.75 C-0.04896484 4.13351562 -0.04896484 4.13351562 -0.03515625 2.484375 C-0.02355469 1.66453125 -0.01195312 0.8446875 0 0 Z " fill="#A89253" transform="translate(633,494)"/>
<path d="M0 0 C0.86625 0.825 1.7325 1.65 2.625 2.5 C5.0612676 4.53405361 5.8434692 4.9812163 9.125 5.375 C11.49985567 5.06523622 13.7133696 4.70357859 16 4 C16 4.99 16 5.98 16 7 C12.34711807 8.21762731 9.84245864 8.39075851 6 8 C3.48693554 6.57885656 2.03736171 5.13674521 0 3 C0 2.01 0 1.02 0 0 Z " fill="#A19163" transform="translate(702,257)"/>
<path d="M0 0 C0.33 0.66 0.66 1.32 1 2 C1.99 2.33 2.98 2.66 4 3 C3.01 5.31 2.02 7.62 1 10 C0.34 9.34 -0.32 8.68 -1 8 C-1.99 8 -2.98 8 -4 8 C-2.68 5.36 -1.36 2.72 0 0 Z " fill="#AE9754" transform="translate(613,386)"/>
<path d="M0 0 C2.39456443 2.39456443 2.75546876 3.65807308 3 7 C1.8125 8.8125 1.8125 8.8125 0 10 C-1.32 10 -2.64 10 -4 10 C-2.8905928 6.51329166 -1.73662334 3.22515763 0 0 Z " fill="#AF9753" transform="translate(631,351)"/>
<path d="M0 0 C0.33 0 0.66 0 1 0 C1.24867947 2.60364409 1.47457902 5.20589894 1.6875 7.8125 C1.79674805 8.91948242 1.79674805 8.91948242 1.90820312 10.04882812 C2.33135078 15.54974762 2.33135078 15.54974762 0.51953125 18.01171875 C-0.23263672 18.50091797 -0.23263672 18.50091797 -1 19 C-1.33 16.69 -1.66 14.38 -2 12 C-1.34 12 -0.68 12 0 12 C0 8.04 0 4.08 0 0 Z " fill="#C0A660" transform="translate(433,347)"/>
<path d="M0 0 C1.19921875 1.640625 1.19921875 1.640625 2 4 C0.76953125 6.796875 0.76953125 6.796875 -1.1875 9.75 C-2.13689453 11.22726562 -2.13689453 11.22726562 -3.10546875 12.734375 C-3.73066406 13.48203125 -4.35585938 14.2296875 -5 15 C-5.99 15 -6.98 15 -8 15 C-7.236875 14.01 -6.47375 13.02 -5.6875 12 C-2.94512678 8.19028265 -1.48008578 4.44025735 0 0 Z " fill="#A19265" transform="translate(629,523)"/>
<path d="M0 0 C1.30979218 3.61032461 0.69111399 5.62664358 -0.75 9.125 C-1.09546875 9.99382812 -1.4409375 10.86265625 -1.796875 11.7578125 C-3 14 -3 14 -6 16 C-4.25192871 10.53262809 -2.34205919 5.24175152 0 0 Z " fill="#AF9859" transform="translate(501,415)"/>
<path d="M0 0 C1.65 0 3.3 0 5 0 C5.66 1.65 6.32 3.3 7 5 C6.01 5.33 5.02 5.66 4 6 C2.62437146 4.71034824 1.29233607 3.37310707 0 2 C0 1.34 0 0.68 0 0 Z " fill="#AE9552" transform="translate(441,382)"/>
<path d="M0 0 C1.40309836 3.18885991 0.90389952 4.25335581 -0.375 7.625 C-1.23999119 9.42152016 -2.10829439 11.21658879 -3 13 C-3.66 13 -4.32 13 -5 13 C-3.58192622 8.52761347 -1.88695626 4.28853694 0 0 Z " fill="#AF9858" transform="translate(479,465)"/>
<path d="M0 0 C1.32 0 2.64 0 4 0 C4.125 2.875 4.125 2.875 4 6 C3.34 6.66 2.68 7.32 2 8 C0 5 0 5 -1 2 C-0.67 1.34 -0.34 0.68 0 0 Z " fill="#B39952" transform="translate(661,293)"/>
<path d="M0 0 C-0.33 0.66 -0.66 1.32 -1 2 C-3.28515625 2.4140625 -3.28515625 2.4140625 -6.0625 2.625 C-6.98160156 2.69976562 -7.90070313 2.77453125 -8.84765625 2.8515625 C-9.55792969 2.90054687 -10.26820313 2.94953125 -11 3 C-10 1 -10 1 -8.3125 0.375 C-5.51555886 -0.07855802 -2.82858003 -0.06428591 0 0 Z " fill="#A99355" transform="translate(482,296)"/>
<path d="M0 0 C4.875 4.75 4.875 4.75 6 7 C4.68 7 3.36 7 2 7 C0 4 0 4 0 0 Z " fill="#A8935C" transform="translate(670,349)"/>
<path d="M0 0 C0.95465783 2.16967689 1.14401212 3.56328793 0.3984375 5.82421875 C-0.35870385 7.5684743 -1.17609198 9.28627131 -2 11 C-2.66 11 -3.32 11 -4 11 C-2.7874262 7.27566618 -1.49140021 3.62197194 0 0 Z " fill="#B29B5A" transform="translate(717,519)"/>
<path d="M0 0 C0.99 0 1.98 0 3 0 C2.67 2.31 2.34 4.62 2 7 C1.34 7 0.68 7 0 7 C0 4.69 0 2.38 0 0 Z " fill="#A8935C" transform="translate(595,421)"/>
<path d="M0 0 C2.475 0.495 2.475 0.495 5 1 C5 2.32 5 3.64 5 5 C3.35 4.67 1.7 4.34 0 4 C0 2.68 0 1.36 0 0 Z " fill="#A6925A" transform="translate(458,392)"/>
<path d="M0 0 C0.66 0.99 1.32 1.98 2 3 C0.68 5.64 -0.64 8.28 -2 11 C-2.66 11 -3.32 11 -4 11 C-3.52269162 9.5410574 -3.04308958 8.08286504 -2.5625 6.625 C-2.29566406 5.81289063 -2.02882813 5.00078125 -1.75390625 4.1640625 C-1 2 -1 2 0 0 Z " fill="#AD985B" transform="translate(541,325)"/>
<path d="M0 0 C0.66 0.33 1.32 0.66 2 1 C2 2.32 2 3.64 2 5 C0.35 5.33 -1.3 5.66 -3 6 C-3 5.34 -3 4.68 -3 4 C-2.34 4 -1.68 4 -1 4 C-0.67 2.68 -0.34 1.36 0 0 Z " fill="#C1A456" transform="translate(680,383)"/>
</svg>
